<svg width="16" height="17" viewBox="0 0 16 17" fill="none" xmlns="http://www.w3.org/2000/svg">
<g clip-path="url(#clip0_63_3248)">
<path d="M6.62528 10.8341C6.56576 10.6034 6.4455 10.3929 6.27702 10.2244C6.10854 10.0559 5.89799 9.93567 5.66728 9.87615L1.57728 8.82148C1.5075 8.80168 1.44608 8.75965 1.40235 8.70178C1.35862 8.64391 1.33496 8.57335 1.33496 8.50082C1.33496 8.42828 1.35862 8.35772 1.40235 8.29985C1.44608 8.24198 1.5075 8.19996 1.57728 8.18015L5.66728 7.12482C5.89791 7.06535 6.10841 6.9452 6.27688 6.77684C6.44535 6.60849 6.56565 6.39808 6.62528 6.16748L7.67994 2.07748C7.69955 2.00743 7.74153 1.94571 7.79949 1.90175C7.85745 1.85778 7.9282 1.83398 8.00094 1.83398C8.07369 1.83398 8.14444 1.85778 8.2024 1.90175C8.26035 1.94571 8.30234 2.00743 8.32194 2.07748L9.37594 6.16748C9.43546 6.3982 9.55572 6.60875 9.7242 6.77723C9.89268 6.94571 10.1032 7.06597 10.3339 7.12548L14.4239 8.17948C14.4943 8.19888 14.5563 8.24082 14.6005 8.29887C14.6447 8.35691 14.6686 8.42786 14.6686 8.50082C14.6686 8.57378 14.6447 8.64472 14.6005 8.70277C14.5563 8.76081 14.4943 8.80275 14.4239 8.82215L10.3339 9.87615C10.1032 9.93567 9.89268 10.0559 9.7242 10.2244C9.55572 10.3929 9.43546 10.6034 9.37594 10.8341L8.32128 14.9242C8.30167 14.9942 8.25969 15.0559 8.20173 15.0999C8.14377 15.1439 8.07302 15.1677 8.00028 15.1677C7.92753 15.1677 7.85678 15.1439 7.79882 15.0999C7.74087 15.0559 7.69888 14.9942 7.67928 14.9242L6.62528 10.8341Z" fill="#08605F" stroke="#08605F" stroke-width="1.88235" stroke-linecap="round" stroke-linejoin="round"/>
<path d="M13.334 2.5V5.16667" stroke="#08605F" stroke-width="1.88235" stroke-linecap="round" stroke-linejoin="round"/>
<path d="M14.6667 3.83398H12" stroke="#08605F" stroke-width="1.88235" stroke-linecap="round" stroke-linejoin="round"/>
<path d="M2.66602 11.834V13.1673" stroke="#08605F" stroke-width="1.88235" stroke-linecap="round" stroke-linejoin="round"/>
<path d="M3.33333 12.5H2" stroke="#08605F" stroke-width="1.88235" stroke-linecap="round" stroke-linejoin="round"/>
</g>
<defs>
<clipPath id="clip0_63_3248">
<rect width="16" height="16" fill="white" transform="translate(0 0.5)"/>
</clipPath>
</defs>
</svg>
