<svg width="46" height="46" viewBox="0 0 46 46" fill="none" xmlns="http://www.w3.org/2000/svg">
<path d="M34.5003 9.58337L29.8735 4.95654C29.1548 4.2376 28.1799 3.83359 27.1633 3.83337H11.5003C10.4837 3.83337 9.50864 4.23724 8.78975 4.95613C8.07086 5.67502 7.66699 6.65004 7.66699 7.66671V38.3334C7.66699 39.35 8.07086 40.3251 8.78975 41.0439C9.50864 41.7628 10.4837 42.1667 11.5003 42.1667H34.5003C35.517 42.1667 36.492 41.7628 37.2109 41.0439C37.9298 40.3251 38.3337 39.35 38.3337 38.3334" stroke="#096160" stroke-width="3.83333" stroke-linecap="round" stroke-linejoin="round"/>
<path d="M40.9749 24.1999C41.7384 23.4364 42.1673 22.4008 42.1673 21.321C42.1673 20.2413 41.7384 19.2057 40.9749 18.4422C40.2113 17.6787 39.1758 17.2498 38.096 17.2498C37.0163 17.2498 35.9807 17.6787 35.2172 18.4422L27.5314 26.1319C27.0757 26.5873 26.7421 27.1503 26.5615 27.7687L24.9573 33.2695C24.9092 33.4345 24.9063 33.6093 24.9489 33.7757C24.9916 33.9421 25.0782 34.094 25.1996 34.2155C25.3211 34.337 25.473 34.4236 25.6394 34.4662C25.8059 34.5089 25.9807 34.506 26.1456 34.4579L31.6464 32.8536C32.2649 32.673 32.8278 32.3395 33.2833 31.8838L40.9749 24.1999Z" stroke="#096160" stroke-width="3.83333" stroke-linecap="round" stroke-linejoin="round"/>
<path d="M15.333 34.5H17.2497" stroke="#096160" stroke-width="3.83333" stroke-linecap="round" stroke-linejoin="round"/>
</svg>
